<svg width="967" height="174" viewBox="0 0 967 174" fill="none" xmlns="http://www.w3.org/2000/svg">
<path d="M33.4003 106.169C37.0158 116.327 51.9082 125.107 54.5768 125.624" stroke="black" stroke-width="9" stroke-linecap="round"/>
<path d="M81.2625 124.505C83.0703 124.505 102.181 113.486 103.128 94.3757" stroke="black" stroke-width="9" stroke-linecap="round"/>
<path d="M16.0975 43.9307C19.0725 6.92432 76.0851 -3.14824 88.8378 42.0369" stroke="black" stroke-width="9" stroke-linecap="round"/>
<path d="M5.42422 92.6245L11.2875 94.5797C15.1973 95.8834 19.5021 94.5268 21.9578 91.2169V91.2169C23.7082 88.8576 24.273 85.8229 23.4884 82.9918L16.8594 59.0714C16.3239 57.1391 17.6018 55.1744 19.5853 54.8806V54.8806C20.9833 54.6735 22.3601 55.3698 23.0218 56.6186L45.9619 99.9131C47.0247 101.919 49.2362 103.037 51.4816 102.705V102.705C54.793 102.214 56.8487 98.841 55.767 95.6731L46.9244 69.7764C46.2916 67.9231 46.9799 65.8756 48.6037 64.7809V64.7809C50.5202 63.4888 53.1134 63.9276 54.4981 65.7782L67.3047 82.8933C68.3896 84.3432 70.4862 84.5465 71.8295 83.332V83.332C72.6895 82.5545 73.0391 81.3593 72.7338 80.2409L64.6996 50.8117C64.0875 48.5695 65.5723 46.2964 67.8714 45.9558V45.9558C69.2986 45.7444 70.7251 46.3429 71.5741 47.5095L95.1187 79.8608C96.6069 81.9056 99.5456 82.1948 101.404 80.4793V80.4793C102.733 79.2519 103.134 77.3144 102.401 75.6603L95.0472 59.0734C93.9458 56.5891 95.1154 53.6859 97.6314 52.6589V52.6589C98.6271 52.2526 99.73 52.1909 100.765 52.4837L114.646 56.4123" stroke="black" stroke-width="9" stroke-linecap="round"/>
<path d="M50.6897 142.855H88.6541" stroke="black" stroke-width="9" stroke-linecap="round"/>
<rect x="38.5653" y="154.806" width="61.4634" height="6.54232" rx="3.27116" fill="black"/>
<ellipse cx="69.3795" cy="114.235" rx="8.76103" ry="8.76103" fill="black"/>
<path d="M69.3794 122.412L69.6714 148.56" stroke="black" stroke-width="9" stroke-linecap="round"/>
<path d="M200.256 112.552C200.256 118.013 198.933 122.664 196.288 126.504C193.643 130.259 189.845 133.16 184.896 135.208C180.032 137.256 174.272 138.28 167.616 138.28C164.203 138.28 160.917 138.109 157.76 137.768C154.688 137.427 151.872 136.957 149.312 136.36C146.752 135.677 144.491 134.867 142.528 133.928V122.92C145.6 124.285 149.397 125.523 153.92 126.632C158.528 127.741 163.264 128.296 168.128 128.296C172.651 128.296 176.448 127.699 179.52 126.504C182.592 125.309 184.896 123.603 186.432 121.384C187.968 119.165 188.736 116.563 188.736 113.576C188.736 110.589 188.096 108.072 186.816 106.024C185.536 103.976 183.317 102.099 180.16 100.392C177.088 98.6 172.779 96.7227 167.232 94.76C163.307 93.3093 159.851 91.7733 156.864 90.152C153.963 88.4453 151.531 86.5253 149.568 84.392C147.605 82.2587 146.112 79.8267 145.088 77.096C144.149 74.3653 143.68 71.208 143.68 67.624C143.68 62.76 144.917 58.6213 147.392 55.208C149.867 51.7093 153.28 49.0213 157.632 47.144C162.069 45.2667 167.147 44.328 172.864 44.328C177.899 44.328 182.507 44.7973 186.688 45.736C190.869 46.6747 194.667 47.912 198.08 49.448L194.496 59.304C191.339 57.9387 187.883 56.7867 184.128 55.848C180.459 54.9093 176.619 54.44 172.608 54.44C168.768 54.44 165.568 54.9947 163.008 56.104C160.448 57.2133 158.528 58.792 157.248 60.84C155.968 62.8027 155.328 65.1067 155.328 67.752C155.328 70.824 155.968 73.384 157.248 75.432C158.528 77.48 160.619 79.3147 163.52 80.936C166.421 82.5573 170.347 84.3067 175.296 86.184C180.672 88.1467 185.195 90.28 188.864 92.584C192.619 94.8027 195.435 97.4907 197.312 100.648C199.275 103.805 200.256 107.773 200.256 112.552ZM271.658 102.568C271.658 108.285 270.89 113.363 269.354 117.8C267.903 122.152 265.77 125.864 262.954 128.936C260.223 132.008 256.853 134.355 252.842 135.976C248.917 137.512 244.522 138.28 239.658 138.28C235.135 138.28 230.954 137.512 227.114 135.976C223.274 134.355 219.946 132.008 217.13 128.936C214.314 125.864 212.095 122.152 210.474 117.8C208.938 113.363 208.17 108.285 208.17 102.568C208.17 94.9733 209.45 88.5733 212.01 83.368C214.57 78.0773 218.239 74.0667 223.018 71.336C227.797 68.52 233.471 67.112 240.042 67.112C246.271 67.112 251.733 68.52 256.426 71.336C261.205 74.0667 264.917 78.0773 267.562 83.368C270.293 88.5733 271.658 94.9733 271.658 102.568ZM219.818 102.568C219.818 107.944 220.501 112.637 221.866 116.648C223.317 120.573 225.535 123.603 228.522 125.736C231.509 127.869 235.306 128.936 239.914 128.936C244.522 128.936 248.319 127.869 251.306 125.736C254.293 123.603 256.469 120.573 257.834 116.648C259.285 112.637 260.01 107.944 260.01 102.568C260.01 97.1067 259.285 92.456 257.834 88.616C256.383 84.776 254.165 81.832 251.178 79.784C248.277 77.6507 244.479 76.584 239.786 76.584C232.789 76.584 227.711 78.888 224.554 83.496C221.397 88.104 219.818 94.4613 219.818 102.568ZM341.734 68.392V137H332.518L330.854 127.912H330.342C328.891 130.301 327.014 132.264 324.71 133.8C322.406 135.336 319.889 136.445 317.158 137.128C314.427 137.896 311.569 138.28 308.582 138.28C303.121 138.28 298.513 137.427 294.758 135.72C291.089 133.928 288.315 131.197 286.438 127.528C284.561 123.859 283.622 119.123 283.622 113.32V68.392H295.014V112.552C295.014 118.013 296.251 122.109 298.726 124.84C301.201 127.571 305.041 128.936 310.246 128.936C315.366 128.936 319.377 127.997 322.278 126.12C325.265 124.157 327.355 121.341 328.55 117.672C329.83 113.917 330.47 109.395 330.47 104.104V68.392H341.734ZM391.419 67.112C399.611 67.112 405.798 69.1173 409.979 73.128C414.16 77.0533 416.251 83.4533 416.251 92.328V137H405.115V93.096C405.115 87.5493 403.878 83.4107 401.403 80.68C398.928 77.9493 395.046 76.584 389.755 76.584C382.16 76.584 376.912 78.7173 374.011 82.984C371.11 87.2507 369.659 93.3947 369.659 101.416V137H358.395V68.392H367.483L369.147 77.736H369.787C371.323 75.3467 373.2 73.384 375.419 71.848C377.723 70.2267 380.24 69.032 382.971 68.264C385.702 67.496 388.518 67.112 391.419 67.112ZM456.72 138.28C448.187 138.28 441.36 135.336 436.24 129.448C431.12 123.475 428.56 114.6 428.56 102.824C428.56 91.048 431.12 82.1733 436.24 76.2C441.445 70.1413 448.315 67.112 456.848 67.112C460.432 67.112 463.547 67.5813 466.192 68.52C468.837 69.3733 471.141 70.568 473.104 72.104C475.067 73.64 476.731 75.3467 478.096 77.224H478.864C478.779 76.1147 478.608 74.4933 478.352 72.36C478.181 70.1413 478.096 68.392 478.096 67.112V39.72H489.36V137H480.272L478.608 127.784H478.096C476.731 129.747 475.067 131.539 473.104 133.16C471.141 134.696 468.795 135.933 466.064 136.872C463.419 137.811 460.304 138.28 456.72 138.28ZM458.512 128.936C465.765 128.936 470.843 126.973 473.744 123.048C476.731 119.037 478.224 113.021 478.224 105V102.952C478.224 94.4187 476.816 87.8907 474 83.368C471.184 78.76 465.979 76.456 458.384 76.456C452.325 76.456 447.76 78.888 444.688 83.752C441.701 88.5307 440.208 94.9733 440.208 103.08C440.208 111.272 441.701 117.629 444.688 122.152C447.76 126.675 452.368 128.936 458.512 128.936ZM608.912 90.408C608.912 100.648 606.992 109.224 603.152 116.136C599.397 123.048 593.979 128.253 586.896 131.752C579.813 135.251 571.237 137 561.168 137H535.696V45.608H563.856C573.072 45.608 581.051 47.3147 587.792 50.728C594.533 54.1413 599.739 59.176 603.408 65.832C607.077 72.4027 608.912 80.5947 608.912 90.408ZM596.752 90.792C596.752 82.6853 595.387 76.0293 592.656 70.824C590.011 65.6187 586.085 61.7787 580.88 59.304C575.76 56.744 569.531 55.464 562.192 55.464H547.216V127.144H559.632C572.005 127.144 581.264 124.115 587.408 118.056C593.637 111.912 596.752 102.824 596.752 90.792ZM654.54 67.112C655.82 67.112 657.185 67.1973 658.636 67.368C660.172 67.4533 661.495 67.624 662.604 67.88L661.196 78.248C660.087 77.992 658.849 77.7787 657.484 77.608C656.204 77.4373 654.967 77.352 653.772 77.352C651.127 77.352 648.609 77.9067 646.22 79.016C643.831 80.1253 641.697 81.704 639.82 83.752C637.943 85.7147 636.449 88.104 635.34 90.92C634.316 93.736 633.804 96.8933 633.804 100.392V137H622.54V68.392H631.756L633.036 80.936H633.548C634.999 78.376 636.748 76.072 638.796 74.024C640.844 71.8907 643.191 70.2267 645.836 69.032C648.481 67.752 651.383 67.112 654.54 67.112ZM694.291 67.112C700.179 67.112 705.214 68.392 709.395 70.952C713.662 73.512 716.904 77.1387 719.123 81.832C721.427 86.44 722.579 91.8587 722.579 98.088V104.872H675.603C675.774 112.637 677.736 118.568 681.491 122.664C685.331 126.675 690.664 128.68 697.491 128.68C701.843 128.68 705.683 128.296 709.011 127.528C712.424 126.675 715.923 125.48 719.507 123.944V133.8C716.008 135.336 712.552 136.445 709.139 137.128C705.726 137.896 701.672 138.28 696.979 138.28C690.494 138.28 684.734 136.957 679.699 134.312C674.75 131.667 670.867 127.741 668.051 122.536C665.32 117.245 663.955 110.803 663.955 103.208C663.955 95.6987 665.192 89.256 667.667 83.88C670.227 78.504 673.768 74.3653 678.291 71.464C682.899 68.5627 688.232 67.112 694.291 67.112ZM694.163 76.328C688.787 76.328 684.52 78.0773 681.363 81.576C678.291 84.9893 676.456 89.768 675.859 95.912H710.803C710.803 91.9867 710.206 88.5733 709.011 85.672C707.816 82.7707 705.982 80.5093 703.507 78.888C701.118 77.1813 698.003 76.328 694.163 76.328ZM760.909 67.24C769.272 67.24 775.458 69.0747 779.469 72.744C783.48 76.4133 785.485 82.2587 785.485 90.28V137H777.293L775.117 127.272H774.605C772.642 129.747 770.594 131.837 768.461 133.544C766.413 135.165 764.024 136.36 761.293 137.128C758.648 137.896 755.405 138.28 751.565 138.28C747.469 138.28 743.757 137.555 740.429 136.104C737.186 134.653 734.626 132.435 732.749 129.448C730.872 126.376 729.933 122.536 729.933 117.928C729.933 111.101 732.621 105.853 737.997 102.184C743.373 98.4293 751.65 96.3813 762.829 96.04L774.477 95.656V91.56C774.477 85.8427 773.24 81.8747 770.765 79.656C768.29 77.4373 764.792 76.328 760.269 76.328C756.685 76.328 753.272 76.8827 750.029 77.992C746.786 79.016 743.757 80.2107 740.941 81.576L737.485 73.128C740.472 71.5067 744.013 70.1413 748.109 69.032C752.205 67.8373 756.472 67.24 760.909 67.24ZM764.237 103.848C755.704 104.189 749.773 105.555 746.445 107.944C743.202 110.333 741.581 113.704 741.581 118.056C741.581 121.896 742.733 124.712 745.037 126.504C747.426 128.296 750.456 129.192 754.125 129.192C759.928 129.192 764.749 127.613 768.589 124.456C772.429 121.213 774.349 116.264 774.349 109.608V103.464L764.237 103.848ZM876.819 67.112C884.584 67.112 890.387 69.1173 894.227 73.128C898.067 77.0533 899.987 83.4533 899.987 92.328V137H888.851V92.84C888.851 87.464 887.699 83.4107 885.395 80.68C883.176 77.9493 879.678 76.584 874.899 76.584C868.243 76.584 863.464 78.504 860.563 82.344C857.747 86.184 856.339 91.7733 856.339 99.112V137H845.203V92.84C845.203 89.256 844.691 86.2693 843.667 83.88C842.643 81.4053 841.107 79.5707 839.059 78.376C837.011 77.1813 834.366 76.584 831.123 76.584C826.515 76.584 822.888 77.5653 820.243 79.528C817.598 81.4053 815.678 84.1787 814.483 87.848C813.374 91.5173 812.819 96.04 812.819 101.416V137H801.555V68.392H810.643L812.307 77.736H812.947C814.398 75.3467 816.147 73.384 818.195 71.848C820.328 70.2267 822.675 69.032 825.235 68.264C827.795 67.496 830.44 67.112 833.171 67.112C838.462 67.112 842.856 68.0507 846.355 69.928C849.939 71.8053 852.542 74.7067 854.163 78.632H854.803C857.107 74.7067 860.222 71.8053 864.147 69.928C868.158 68.0507 872.382 67.112 876.819 67.112ZM960.732 118.056C960.732 122.493 959.623 126.205 957.404 129.192C955.185 132.179 952.028 134.44 947.932 135.976C943.836 137.512 938.972 138.28 933.34 138.28C928.561 138.28 924.423 137.896 920.924 137.128C917.511 136.36 914.481 135.293 911.836 133.928V123.688C914.567 125.053 917.852 126.333 921.692 127.528C925.617 128.637 929.585 129.192 933.596 129.192C939.313 129.192 943.452 128.296 946.012 126.504C948.572 124.627 949.852 122.152 949.852 119.08C949.852 117.373 949.383 115.837 948.444 114.472C947.505 113.107 945.799 111.741 943.324 110.376C940.935 109.011 937.479 107.475 932.956 105.768C928.519 104.061 924.721 102.355 921.564 100.648C918.407 98.9413 915.975 96.8933 914.268 94.504C912.561 92.1147 911.708 89.0427 911.708 85.288C911.708 79.4853 914.055 75.0053 918.748 71.848C923.527 68.6907 929.756 67.112 937.436 67.112C941.617 67.112 945.5 67.5387 949.084 68.392C952.753 69.16 956.167 70.2693 959.324 71.72L955.484 80.68C953.607 79.8267 951.601 79.1013 949.468 78.504C947.42 77.8213 945.329 77.3093 943.196 76.968C941.063 76.5413 938.887 76.328 936.668 76.328C932.06 76.328 928.519 77.096 926.044 78.632C923.655 80.0827 922.46 82.088 922.46 84.648C922.46 86.5253 923.015 88.1467 924.124 89.512C925.233 90.792 927.068 92.072 929.628 93.352C932.273 94.5467 935.772 95.9973 940.124 97.704C944.476 99.3253 948.188 100.989 951.26 102.696C954.332 104.403 956.679 106.493 958.3 108.968C959.921 111.357 960.732 114.387 960.732 118.056Z" fill="black"/>
</svg>
